<?xml version="1.0" standalone="no"?><!DOCTYPE svg PUBLIC "-//W3C//DTD SVG 1.1//EN" "http://www.w3.org/Graphics/SVG/1.1/DTD/svg11.dtd"><svg t="1618152023477" class="icon" viewBox="0 0 1024 1024" version="1.1" xmlns="http://www.w3.org/2000/svg" p-id="1348" xmlns:xlink="http://www.w3.org/1999/xlink" width="200" height="200"><defs><style type="text/css"></style></defs><path d="M1024.00003 511.832143A511.992541 511.992541 0 1 1 512.007489 0a511.992541 511.992541 0 0 1 511.992541 511.832143z" fill="#FFD21F" p-id="1349"></path><path d="M279.108626 514.719319a37.21249 37.21249 0 0 1-37.212491-37.212491v-89.181658a37.21249 37.21249 0 0 1 37.212491-37.21249 37.21249 37.21249 0 0 1 37.052092 37.21249v89.181658a37.21249 37.21249 0 0 1-37.052092 37.212491zM745.06675 514.719319a37.372889 37.372889 0 0 1-37.21249-37.212491v-89.181658a37.372889 37.372889 0 0 1 37.21249-37.21249 37.21249 37.21249 0 0 1 37.212491 37.21249v89.181658a37.21249 37.21249 0 0 1-37.212491 37.212491zM511.205495 707.358116c-160.398666 0-204.3479-91.748037-206.272684-96.239199a25.984584 25.984584 0 0 1 48.1196-21.333023c1.122791 2.40598 34.004517 65.442656 158.955078 65.442656s160.398666-64.159466 160.398665-66.565446a25.824185 25.824185 0 0 1 34.646112-12.190299 26.305381 26.305381 0 0 1 12.190299 34.806511c-2.085183 4.009967-47.959201 96.078801-208.03707 96.0788z" fill="#403408" p-id="1350"></path><path d="M174.689094 569.736061m-74.424981 0a74.424981 74.424981 0 1 0 148.849962 0 74.424981 74.424981 0 1 0-148.849962 0Z" fill="#FF758A" opacity=".6" p-id="1351"></path><path d="M891.510732 569.736061m-74.424981 0a74.424981 74.424981 0 1 0 148.849962 0 74.424981 74.424981 0 1 0-148.849962 0Z" fill="#FF758A" opacity=".6" p-id="1352"></path></svg>