<?xml version="1.0" standalone="no"?><!DOCTYPE svg PUBLIC "-//W3C//DTD SVG 1.1//EN" "http://www.w3.org/Graphics/SVG/1.1/DTD/svg11.dtd"><svg t="1618197471279" class="icon" viewBox="0 0 1024 1024" version="1.1" xmlns="http://www.w3.org/2000/svg" p-id="3478" xmlns:xlink="http://www.w3.org/1999/xlink" width="200" height="200"><defs><style type="text/css"></style></defs><path d="M12.619144 510.955622a498.448557 498.448557 0 1 0 996.907304 0 498.448557 498.448557 0 1 0-996.907304 0z" fill="#F2CF3D" p-id="3479"></path><path d="M511.072796 1022.145592c-69.005373 0-135.932179-13.546348-198.915821-40.175443-60.905075-25.701891-115.55407-62.637214-162.449194-109.532338-46.89003-46.895124-83.825353-101.661294-109.532338-162.4441C13.551443 647.004975 0 579.960995 0 511.072796c0-69.005373 13.551443-135.932179 40.175443-198.915821 25.706985-60.905075 62.642308-115.55407 109.532338-162.449194 46.895124-46.89003 101.661294-83.825353 162.449194-109.532338C375.140617 13.551443 442.179502 0 511.072796 0 579.96609 0 647.004975 13.551443 709.993711 40.175443c60.89998 25.706985 115.548975 62.642308 162.4441 109.532338 46.895124 46.895124 83.830448 101.661294 109.532338 162.449194 26.629095 62.983642 40.175443 130.022527 40.175443 198.915821 0 69.010468-13.546348 135.932179-40.175443 198.920915-25.701891 60.89998-62.637214 115.548975-109.532338 162.4441-46.895124 46.895124-101.661294 83.830448-162.4441 109.532338-62.988736 26.629095-129.910448 40.175443-198.920915 40.175443z m0-996.902209c-65.530905 0-129.212498 12.848398-189.073194 38.208955-57.777035 24.428259-109.766687 59.509174-154.343801 104.086289-44.577114 44.577114-79.65803 96.566766-104.091383 154.343801-25.355463 59.860697-38.208955 123.425114-38.208955 189.073194 0 65.653174 12.853493 129.217592 38.208955 189.078288 24.433353 57.894209 59.514269 109.766687 104.091383 154.343801 44.577114 44.577114 96.566766 79.65803 154.343801 104.086289 59.860697 25.360557 123.425114 38.208955 189.073194 38.208955 65.536 0 129.217592-12.848398 189.078289-38.208955 57.889114-24.428259 109.761592-59.509174 154.338706-104.086289 44.577114-44.577114 79.663124-96.566766 104.091383-154.343801 25.355463-59.860697 38.208955-123.425114 38.208955-189.078288 0-65.64808-12.853493-129.212498-38.208955-189.073194-24.428259-57.777035-59.514269-109.766687-104.091383-154.343801-44.577114-44.577114-96.561672-79.65803-154.338706-104.086289-59.860697-25.360557-123.425114-38.208955-189.078289-38.208955z" fill="#231815" p-id="3480"></path><path d="M52.565333 471.014527c0 253.223483 205.28398 458.507463 458.507463 458.507463 253.228577 0 458.507463-205.28398 458.507463-458.507463 0-253.228577-205.278886-458.507463-458.507463-458.507462-253.223483 0-458.507463 205.278886-458.507463 458.507462z" fill="#FFE20D" p-id="3481"></path><path d="M511.072796 1022.145592c-69.005373 0-135.932179-13.546348-198.915821-40.175443-60.905075-25.701891-115.55407-62.637214-162.449194-109.532338-46.89003-46.895124-83.825353-101.661294-109.532338-162.4441C13.551443 647.004975 0 579.960995 0 511.072796c0-69.005373 13.551443-135.932179 40.175443-198.915821 25.706985-60.905075 62.642308-115.55407 109.532338-162.449194 46.895124-46.89003 101.661294-83.825353 162.449194-109.532338C375.140617 13.551443 442.179502 0 511.072796 0 579.96609 0 647.004975 13.551443 709.993711 40.175443c60.89998 25.706985 115.548975 62.642308 162.4441 109.532338 46.895124 46.895124 83.830448 101.661294 109.532338 162.449194 26.629095 62.983642 40.175443 130.022527 40.175443 198.915821 0 69.010468-13.546348 135.932179-40.175443 198.920915-25.701891 60.89998-62.637214 115.548975-109.532338 162.4441-46.895124 46.895124-101.661294 83.830448-162.4441 109.532338-62.988736 26.629095-129.910448 40.175443-198.920915 40.175443z m0-996.902209c-65.530905 0-129.212498 12.848398-189.073194 38.208955-57.777035 24.428259-109.766687 59.509174-154.343801 104.086289-44.577114 44.577114-79.65803 96.566766-104.091383 154.343801-25.355463 59.860697-38.208955 123.425114-38.208955 189.073194 0 65.653174 12.853493 129.217592 38.208955 189.078288 24.433353 57.894209 59.514269 109.766687 104.091383 154.343801 44.577114 44.577114 96.566766 79.65803 154.343801 104.086289 59.860697 25.360557 123.425114 38.208955 189.073194 38.208955 65.536 0 129.217592-12.848398 189.078289-38.208955 57.889114-24.428259 109.761592-59.509174 154.338706-104.086289 44.577114-44.577114 79.663124-96.566766 104.091383-154.343801 25.355463-59.860697 38.208955-123.425114 38.208955-189.078288 0-65.64808-12.853493-129.212498-38.208955-189.073194-24.428259-57.777035-59.514269-109.766687-104.091383-154.343801-44.577114-44.577114-96.561672-79.65803-154.338706-104.086289-59.860697-25.360557-123.425114-38.208955-189.078289-38.208955z" fill="#231815" p-id="3482"></path><path d="M352.79602 132.457711c0 18.284259 30.169791 35.177711 79.138388 44.322389 48.973692 9.139582 109.308179 9.139582 158.276776 0 48.973692-9.144677 79.138388-26.038129 79.138388-44.322389 0-18.284259-30.164697-35.177711-79.138388-44.322388-48.968597-9.139582-109.303085-9.139582-158.276776 0-48.968597 9.144677-79.138388 26.038129-79.138388 44.322388z" fill="#FFF0B3" p-id="3483"></path><path d="M235.621891 485.946587a41.214726 41.214726 0 1 0 61.832278-35.702448 41.214726 41.214726 0 0 0-61.832278 35.702448z m468.467263 0a41.214726 41.214726 0 1 0 61.827184-35.702448 41.214726 41.214726 0 0 0-61.827184 35.702448z" fill="#231815" p-id="3484"></path><path d="M511.067701 822.766169c45.392239 0 87.916259 5.675303 124.510249 15.512836 13.169353 3.55598 25.691701-8.202189 22.823483-21.66193-14.478647-68.745552-74.940498-120.342925-147.333732-120.342926s-132.855085 51.597373-147.333731 120.342926c-2.807085 13.464836 9.649035 25.21791 22.823483 21.66193 36.588896-9.837532 79.11801-15.512836 124.510248-15.512836z" fill="#FFA6D7" p-id="3485"></path><path d="M509.452736 692.855721c37.042308 0 73.218547 12.389891 101.819224 34.912796 28.259343 22.263085 48.01592 53.334607 55.530348 87.452657 1.859502 8.344836-0.799841 17.02591-7.117054 23.052736a26.517015 26.517015 0 0 1-25.141493 6.561752c-37.837055-9.674507-81.064119-14.774129-125.091025-14.77413-44.026905 0-87.320199 5.099622-125.091025 14.77413a26.557771 26.557771 0 0 1-25.141492-6.561752c-6.317214-6.093055-8.976557-14.7079-7.117055-23.052736 7.585751-34.184279 27.271005-65.260896 55.530348-87.452657C436.234189 705.245612 472.415522 692.855721 509.452736 692.855721z m131.214647 137.552239c3.041433 0 5.955502-1.18193 8.202189-3.275781 2.649154-2.552358 3.76995-5.960597 2.980299-9.358647-6.816478-30.500935-24.616756-58.322149-50.094488-78.216278-25.941333-20.225274-58.699144-31.41795-92.312836-31.417951-33.623881 0-66.376597 11.126448-92.312836 31.417951-25.482826 19.894129-43.283104 47.715343-50.099582 78.216278-0.728517 3.403144 0.331144 6.806289 2.980299 9.358647a11.819303 11.819303 0 0 0 11.248716 2.878408c38.779542-9.883383 83.117214-15.054328 128.11208-15.054328 44.99996 0 89.337632 5.237174 128.117174 15.054328 1.125891 0.259821 2.185552 0.392279 3.178985 0.392279z" fill="#231815" p-id="3486"></path><path d="M179.001313 634.615085c0 13.072557 11.253811 25.151682 29.522787 31.68796 18.27407 6.541373 40.786786 6.541373 59.055761 0 18.27407-6.536279 29.527881-18.615403 29.522786-31.68796 0-13.072557-11.248716-25.151682-29.522786-31.687961-18.268975-6.536279-40.781692-6.536279-59.055761 0-18.268975 6.536279-29.522786 18.615403-29.522787 31.687961z m546.158806 0c0 13.072557 11.248716 25.151682 29.522786 31.68796 18.268975 6.541373 40.781692 6.541373 59.055762 0 18.268975-6.536279 29.522786-18.615403 29.522786-31.68796s-11.253811-25.151682-29.522786-31.687961c-18.27407-6.536279-40.786786-6.536279-59.055762 0-18.27407 6.536279-29.527881 18.615403-29.522786 31.687961z" fill="#FFA178" p-id="3487"></path></svg>